# xmcd
#
# Track frame offsets: 
#        150
#        20841
#        40941
#        59052
#        77306
#        100722
#        121275
#        140422
#        152800
#        169009
#
# Disc length: 2470 seconds
#
# Revision: 0
# Processed by: cddbd v1.4PL0 Copyright (c) Steve Scherf et al.
# Submitted via: ExactAudioCopy v0.90b4
#
DISCID=7d09a40a
DTITLE=FM 1863 - Fine Texas Days
DYEAR=2003
DGENRE=Country
TTITLE0=Road Song
TTITLE1=Adios Amigos
TTITLE2=Back Where I Belong
TTITLE3=Danas Song
TTITLE4=What Comes Around
TTITLE5=One Way Rental
TTITLE6=Only You
TTITLE7=Comal River
TTITLE8=Folsom Prison Blues/Thats All Right
TTITLE9=What I need
EXTD=
EXTT0=
EXTT1=
EXTT2=
EXTT3=
EXTT4=
EXTT5=
EXTT6=
EXTT7=
EXTT8=
EXTT9=
PLAYORDER=
